<?xml version="1.0" standalone="no"?>
<!DOCTYPE svg PUBLIC "-//W3C//DTD SVG 20010904//EN"
 "http://www.w3.org/TR/2001/REC-SVG-20010904/DTD/svg10.dtd">
<svg version="1.0" xmlns="http://www.w3.org/2000/svg"
 width="36.000000pt" height="36.000000pt" viewBox="0 0 36.000000 36.000000"
 preserveAspectRatio="xMidYMid meet">
<metadata>
Created by potrace 1.10, written by Peter Selinger 2001-2011
</metadata>
<g transform="translate(0.000000,36.000000) scale(0.100000,-0.100000)"
fill="#000000" stroke="none">
<path d="M82 330 c-37 -23 -72 -75 -72 -108 0 -13 4 -21 8 -18 10 6 48 -101
39 -110 -3 -3 -15 14 -26 38 -20 42 -20 42 -21 13 0 -60 71 -135 128 -135 19
0 21 2 10 14 -7 8 -17 11 -22 8 -5 -3 -6 0 -2 7 5 7 14 10 21 7 7 -2 16 1 18
8 4 11 13 11 41 2 42 -13 44 -19 14 -34 l-23 -11 25 0 c55 -2 130 72 130 127
0 22 -1 22 -16 7 -22 -22 -25 -15 -12 28 8 25 14 33 20 25 5 -8 8 -2 8 18 0
63 -79 139 -136 132 l-28 -3 30 -14 c16 -7 39 -18 52 -24 29 -13 28 -19 -5
-34 -22 -11 -30 -10 -42 1 -19 17 -53 15 -76 -4 -15 -12 -19 -12 -30 3 -7 10
-19 15 -29 11 -9 -3 -16 -2 -16 4 0 5 24 21 53 35 48 24 50 26 22 26 -16 1
-45 -8 -63 -19z m33 -107 c11 -62 18 -71 24 -28 3 22 9 36 12 30 12 -19 21
-95 14 -125 -6 -26 -11 -30 -39 -30 -33 0 -33 1 -55 80 -12 45 -24 87 -28 95
-4 12 3 15 30 15 34 0 36 -2 42 -37z m120 -40 c9 -43 21 -85 27 -93 7 -12 8
-11 4 5 -14 56 -18 98 -12 130 6 31 11 35 36 35 17 0 30 -3 30 -7 -1 -5 -11
-46 -24 -93 -23 -85 -23 -85 -58 -88 l-35 -3 -20 78 c-11 43 -23 86 -27 96 -7
14 -3 17 27 17 l35 0 17 -77z m76 -90 c-8 -15 -10 -15 -11 -2 0 17 10 32 18
25 2 -3 -1 -13 -7 -23z"/>
</g>
</svg>
